<mxfile host="app.diagrams.net" modified="2023-05-18T07:49:50.004Z" agent="Mozilla/5.0 (Windows NT 10.0; Win64; x64) AppleWebKit/537.36 (KHTML, like Gecko) Chrome/113.0.0.0 Safari/537.36" etag="PXRJxNpcHZtGt-dDzxNm" version="21.3.2" type="github">
  <diagram name="Page-1" id="7e0a89b8-554c-2b80-1dc8-d5c74ca68de4">
    <mxGraphModel dx="988" dy="521" grid="1" gridSize="10" guides="1" tooltips="1" connect="1" arrows="1" fold="1" page="1" pageScale="1" pageWidth="1100" pageHeight="850" background="none" math="0" shadow="0">
      <root>
        <mxCell id="0" />
        <mxCell id="1" parent="0" />
        <mxCell id="1uWEmEjIt4F314fYsygu-8" style="rounded=0;orthogonalLoop=1;jettySize=auto;html=1;exitX=0;exitY=0.5;exitDx=0;exitDy=0;exitPerimeter=0;endArrow=none;endFill=0;" edge="1" parent="1" source="1uWEmEjIt4F314fYsygu-1">
          <mxGeometry relative="1" as="geometry">
            <mxPoint x="512" y="480.0000000000001" as="targetPoint" />
          </mxGeometry>
        </mxCell>
        <mxCell id="1uWEmEjIt4F314fYsygu-9" value="" style="edgeStyle=orthogonalEdgeStyle;rounded=0;orthogonalLoop=1;jettySize=auto;html=1;endArrow=none;endFill=0;" edge="1" parent="1" source="1uWEmEjIt4F314fYsygu-1" target="1uWEmEjIt4F314fYsygu-7">
          <mxGeometry relative="1" as="geometry" />
        </mxCell>
        <mxCell id="1uWEmEjIt4F314fYsygu-1" value="" style="pointerEvents=1;verticalLabelPosition=bottom;shadow=0;dashed=0;align=center;html=1;verticalAlign=top;shape=mxgraph.electrical.capacitors.capacitor_1;rotation=90;" vertex="1" parent="1">
          <mxGeometry x="462" y="510" width="100" height="60" as="geometry" />
        </mxCell>
        <mxCell id="1uWEmEjIt4F314fYsygu-5" value="" style="edgeStyle=orthogonalEdgeStyle;rounded=0;orthogonalLoop=1;jettySize=auto;html=1;endArrow=none;endFill=0;" edge="1" parent="1" source="1uWEmEjIt4F314fYsygu-3" target="1uWEmEjIt4F314fYsygu-4">
          <mxGeometry relative="1" as="geometry" />
        </mxCell>
        <mxCell id="1uWEmEjIt4F314fYsygu-3" value="" style="shape=waypoint;sketch=0;fillStyle=solid;size=6;pointerEvents=1;points=[];fillColor=none;resizable=0;rotatable=0;perimeter=centerPerimeter;snapToPoint=1;" vertex="1" parent="1">
          <mxGeometry x="340" y="470" width="20" height="20" as="geometry" />
        </mxCell>
        <mxCell id="1uWEmEjIt4F314fYsygu-4" value="" style="shape=waypoint;sketch=0;fillStyle=solid;size=6;pointerEvents=1;points=[];fillColor=none;resizable=0;rotatable=0;perimeter=centerPerimeter;snapToPoint=1;" vertex="1" parent="1">
          <mxGeometry x="680" y="470" width="20" height="20" as="geometry" />
        </mxCell>
        <mxCell id="1uWEmEjIt4F314fYsygu-7" value="" style="pointerEvents=1;verticalLabelPosition=bottom;shadow=0;dashed=0;align=center;html=1;verticalAlign=top;shape=mxgraph.electrical.signal_sources.protective_earth;" vertex="1" parent="1">
          <mxGeometry x="499.5" y="620" width="25" height="20" as="geometry" />
        </mxCell>
      </root>
    </mxGraphModel>
  </diagram>
</mxfile>
